<svg xmlns="http://www.w3.org/2000/svg" xmlns:xlink="http://www.w3.org/1999/xlink" width="50" zoomAndPan="magnify" viewBox="0 0 37.5 37.499999" height="50" preserveAspectRatio="xMidYMid meet" version="1.0"><defs><g/><clipPath id="0511af568e"><path d="M 0 0 L 37.007812 0 L 37.007812 37.007812 L 0 37.007812 Z M 0 0 " clip-rule="nonzero"/></clipPath><clipPath id="147be0728a"><path d="M 18.503906 0 C 8.285156 0 0 8.285156 0 18.503906 C 0 28.722656 8.285156 37.007812 18.503906 37.007812 C 28.722656 37.007812 37.007812 28.722656 37.007812 18.503906 C 37.007812 8.285156 28.722656 0 18.503906 0 Z M 18.503906 0 " clip-rule="nonzero"/></clipPath><clipPath id="e28806b3e8"><path d="M 0 0 L 37.007812 0 L 37.007812 37.007812 L 0 37.007812 Z M 0 0 " clip-rule="nonzero"/></clipPath><clipPath id="8f9fd1df74"><path d="M 18.503906 0 C 8.285156 0 0 8.285156 0 18.503906 C 0 28.722656 8.285156 37.007812 18.503906 37.007812 C 28.722656 37.007812 37.007812 28.722656 37.007812 18.503906 C 37.007812 8.285156 28.722656 0 18.503906 0 Z M 18.503906 0 " clip-rule="nonzero"/></clipPath><clipPath id="eb1fa128ad"><rect x="0" width="38" y="0" height="38"/></clipPath><clipPath id="7ceca37ba4"><path d="M 3.734375 9.863281 L 32.597656 9.863281 L 32.597656 20.222656 L 3.734375 20.222656 Z M 3.734375 9.863281 " clip-rule="nonzero"/></clipPath><clipPath id="a3b93b8467"><path d="M 0.078125 0.367188 L 4 0.367188 L 4 6 L 0.078125 6 Z M 0.078125 0.367188 " clip-rule="nonzero"/></clipPath><clipPath id="b7af443949"><path d="M 3 0.367188 L 6 0.367188 L 6 6 L 3 6 Z M 3 0.367188 " clip-rule="nonzero"/></clipPath><clipPath id="4239d82664"><path d="M 6 0.367188 L 8 0.367188 L 8 6 L 6 6 Z M 6 0.367188 " clip-rule="nonzero"/></clipPath><clipPath id="73548953b0"><path d="M 8 0.367188 L 11 0.367188 L 11 6 L 8 6 Z M 8 0.367188 " clip-rule="nonzero"/></clipPath><clipPath id="3e76532b59"><path d="M 10 0.367188 L 12 0.367188 L 12 6 L 10 6 Z M 10 0.367188 " clip-rule="nonzero"/></clipPath><clipPath id="89c535865d"><path d="M 11 0.367188 L 14 0.367188 L 14 6 L 11 6 Z M 11 0.367188 " clip-rule="nonzero"/></clipPath><clipPath id="40909212d0"><path d="M 13 0.367188 L 17 0.367188 L 17 6 L 13 6 Z M 13 0.367188 " clip-rule="nonzero"/></clipPath><clipPath id="e039126c80"><path d="M 16 0.367188 L 19 0.367188 L 19 6 L 16 6 Z M 16 0.367188 " clip-rule="nonzero"/></clipPath><clipPath id="43d0bf7626"><path d="M 18 0.367188 L 21 0.367188 L 21 6 L 18 6 Z M 18 0.367188 " clip-rule="nonzero"/></clipPath><clipPath id="9ef5a04ec7"><path d="M 21 0.367188 L 24 0.367188 L 24 6 L 21 6 Z M 21 0.367188 " clip-rule="nonzero"/></clipPath><clipPath id="4b65f14b01"><path d="M 23 0.367188 L 26 0.367188 L 26 6 L 23 6 Z M 23 0.367188 " clip-rule="nonzero"/></clipPath><clipPath id="5182a6e0e9"><path d="M 26 0.367188 L 29 0.367188 L 29 6 L 26 6 Z M 26 0.367188 " clip-rule="nonzero"/></clipPath><clipPath id="7fc0411dc6"><path d="M 28 0.367188 L 31 0.367188 L 31 6 L 28 6 Z M 28 0.367188 " clip-rule="nonzero"/></clipPath><clipPath id="a4ecda450e"><rect x="0" width="32" y="0" height="7"/></clipPath></defs><g clip-path="url(#0511af568e)"><g clip-path="url(#147be0728a)"><g transform="matrix(1, 0, 0, 1, 0, 0)"><g clip-path="url(#eb1fa128ad)"><g clip-path="url(#e28806b3e8)"><g clip-path="url(#8f9fd1df74)"><path fill="#ffffff" d="M 0 0 L 37.007812 0 L 37.007812 37.007812 L 0 37.007812 Z M 0 0 " fill-opacity="1" fill-rule="nonzero"/></g></g></g></g></g></g><g clip-path="url(#7ceca37ba4)"><path fill="#3b251a" d="M 31.691406 18.890625 L 31.027344 18.175781 L 31.015625 18.164062 L 30.675781 17.804688 L 30.359375 17.46875 C 30.210938 17.3125 30.066406 17.15625 29.917969 17 C 29.621094 16.683594 29.320312 16.367188 29.019531 16.050781 L 27.671875 14.640625 L 27.503906 14.464844 L 27.324219 14.640625 L 26.554688 15.378906 C 26.113281 14.972656 25.667969 14.574219 25.226562 14.171875 L 23.707031 12.796875 L 22.1875 11.429688 L 20.660156 10.066406 L 20.433594 9.863281 L 20.195312 10.054688 L 20.015625 10.199219 C 19.929688 10.269531 19.839844 10.339844 19.75 10.414062 C 19.503906 10.613281 19.253906 10.8125 19.007812 11.011719 L 18.164062 11.695312 L 16.144531 13.34375 L 14.128906 15.003906 C 13.570312 15.464844 13.011719 15.929688 12.453125 16.394531 L 12.34375 16.488281 L 11.878906 16.035156 L 11.199219 15.375 L 10.882812 15.066406 L 10.523438 14.71875 L 9.957031 14.175781 L 9.84375 14.0625 L 9.648438 13.878906 L 9.46875 14.0625 C 8.96875 14.582031 8.472656 15.105469 7.972656 15.625 C 7.472656 16.148438 6.980469 16.671875 6.484375 17.195312 C 5.992188 17.722656 5.496094 18.246094 5.007812 18.777344 C 4.878906 18.914062 4.746094 19.050781 4.617188 19.195312 C 4.582031 19.230469 4.550781 19.265625 4.515625 19.304688 C 4.285156 19.550781 4.058594 19.800781 3.832031 20.046875 L 3.734375 20.152344 L 32.851562 20.152344 C 32.46875 19.730469 32.082031 19.308594 31.691406 18.890625 Z M 11.320312 18.398438 L 9.363281 17.746094 L 7.707031 17.746094 L 9.363281 16.945312 L 9.085938 16.023438 L 9.714844 14.6875 L 10.125 15.117188 L 10.78125 15.792969 L 11.378906 16.410156 L 11.4375 16.472656 L 12.097656 17.148438 L 12.25 17.300781 Z M 22.644531 18.226562 L 19.296875 18.226562 L 18.730469 16.234375 L 16.816406 15.097656 L 16.71875 14.09375 L 20.378906 10.832031 L 20.378906 12.785156 L 22.03125 15.117188 L 22.03125 16.140625 L 24.628906 17.75 L 25.125 18.636719 Z M 29.257812 17.660156 L 28.703125 17.558594 L 27.894531 17.148438 L 27.894531 16.503906 L 27.308594 15.90625 L 27.367188 15.304688 L 27.507812 15.164062 L 28.734375 16.335938 C 29.050781 16.636719 29.367188 16.9375 29.683594 17.234375 C 29.839844 17.382812 29.996094 17.527344 30.152344 17.675781 L 30.351562 17.863281 Z M 29.257812 17.660156 " fill-opacity="1" fill-rule="nonzero"/></g><g transform="matrix(1, 0, 0, 1, 3, 20)"><g clip-path="url(#a4ecda450e)"><g clip-path="url(#a3b93b8467)"><g fill="#3b251a" fill-opacity="1"><g transform="translate(0.2634, 5.0873)"><g><path d="M 1.65625 -1.234375 L 2.125 -4.265625 L 3.046875 -4.265625 L 3.046875 0 L 2.421875 0 L 2.421875 -3.0625 L 1.953125 0 L 1.328125 0 L 0.828125 -3.015625 L 0.828125 0 L 0.234375 0 L 0.234375 -4.265625 L 1.171875 -4.265625 Z M 1.65625 -1.234375 "/></g></g></g></g><g clip-path="url(#b7af443949)"><g fill="#3b251a" fill-opacity="1"><g transform="translate(3.560633, 5.0873)"><g><path d="M 0.890625 -4.265625 L 0.890625 -0.96875 C 0.890625 -0.820312 0.921875 -0.71875 0.984375 -0.65625 C 1.046875 -0.59375 1.128906 -0.5625 1.234375 -0.5625 C 1.335938 -0.5625 1.421875 -0.59375 1.484375 -0.65625 C 1.546875 -0.71875 1.578125 -0.820312 1.578125 -0.96875 L 1.578125 -4.265625 L 2.21875 -4.265625 L 2.21875 -1.015625 C 2.21875 -0.671875 2.128906 -0.40625 1.953125 -0.21875 C 1.785156 -0.03125 1.539062 0.0625 1.21875 0.0625 C 0.882812 0.0625 0.632812 -0.03125 0.46875 -0.21875 C 0.300781 -0.40625 0.21875 -0.671875 0.21875 -1.015625 L 0.21875 -4.265625 Z M 0.890625 -4.265625 "/></g></g></g></g><g clip-path="url(#4239d82664)"><g fill="#3b251a" fill-opacity="1"><g transform="translate(5.986323, 5.0873)"><g><path d="M 0.25 -4.265625 L 0.90625 -4.265625 L 0.90625 -0.609375 L 2.015625 -0.609375 L 2.015625 0 L 0.25 0 Z M 0.25 -4.265625 "/></g></g></g></g><g clip-path="url(#73548953b0)"><g fill="#3b251a" fill-opacity="1"><g transform="translate(8.064614, 5.0873)"><g><path d="M 0.0625 -4.265625 L 2.125 -4.265625 L 2.125 -3.65625 L 1.4375 -3.65625 L 1.4375 0 L 0.765625 0 L 0.765625 -3.65625 L 0.0625 -3.65625 Z M 0.0625 -4.265625 "/></g></g></g></g><g clip-path="url(#3e76532b59)"><g fill="#3b251a" fill-opacity="1"><g transform="translate(10.258705, 5.0873)"><g><path d="M 0.25 -4.265625 L 0.90625 -4.265625 L 0.90625 0 L 0.25 0 Z M 0.25 -4.265625 "/></g></g></g></g><g clip-path="url(#89c535865d)"><g fill="#3b251a" fill-opacity="1"><g transform="translate(11.416698, 5.0873)"><g><path d="M 2.40625 0 L 1.734375 0 L 1.625 -0.78125 L 0.796875 -0.78125 L 0.6875 0 L 0.0625 0 L 0.75 -4.265625 L 1.734375 -4.265625 Z M 0.890625 -1.359375 L 1.53125 -1.359375 L 1.203125 -3.515625 Z M 0.890625 -1.359375 "/></g></g></g></g><g clip-path="url(#40909212d0)"><g fill="#3b251a" fill-opacity="1"><g transform="translate(13.897239, 5.0873)"><g><path d="M 1.25 -0.78125 L 1.765625 -4.265625 L 2.375 -4.265625 L 1.71875 0 L 0.71875 0 L 0.0625 -4.265625 L 0.75 -4.265625 Z M 1.25 -0.78125 "/></g></g></g></g><g clip-path="url(#e039126c80)"><g fill="#3b251a" fill-opacity="1"><g transform="translate(16.347305, 5.0873)"><g><path d="M 0.90625 -2.46875 L 1.828125 -2.46875 L 1.828125 -1.859375 L 0.90625 -1.859375 L 0.90625 -0.609375 L 2.078125 -0.609375 L 2.078125 0 L 0.25 0 L 0.25 -4.265625 L 2.078125 -4.265625 L 2.078125 -3.65625 L 0.90625 -3.65625 Z M 0.90625 -2.46875 "/></g></g></g></g><g clip-path="url(#43d0bf7626)"><g fill="#3b251a" fill-opacity="1"><g transform="translate(18.590155, 5.0873)"><g><path d="M 0.84375 -3.09375 L 0.84375 0 L 0.234375 0 L 0.234375 -4.265625 L 1.078125 -4.265625 L 1.765625 -1.71875 L 1.765625 -4.265625 L 2.359375 -4.265625 L 2.359375 0 L 1.671875 0 Z M 0.84375 -3.09375 "/></g></g></g></g><g clip-path="url(#9ef5a04ec7)"><g fill="#3b251a" fill-opacity="1"><g transform="translate(21.192592, 5.0873)"><g><path d="M 0.0625 -4.265625 L 2.125 -4.265625 L 2.125 -3.65625 L 1.4375 -3.65625 L 1.4375 0 L 0.765625 0 L 0.765625 -3.65625 L 0.0625 -3.65625 Z M 0.0625 -4.265625 "/></g></g></g></g><g clip-path="url(#4b65f14b01)"><g fill="#3b251a" fill-opacity="1"><g transform="translate(23.386683, 5.0873)"><g><path d="M 0.890625 -4.265625 L 0.890625 -0.96875 C 0.890625 -0.820312 0.921875 -0.71875 0.984375 -0.65625 C 1.046875 -0.59375 1.128906 -0.5625 1.234375 -0.5625 C 1.335938 -0.5625 1.421875 -0.59375 1.484375 -0.65625 C 1.546875 -0.71875 1.578125 -0.820312 1.578125 -0.96875 L 1.578125 -4.265625 L 2.21875 -4.265625 L 2.21875 -1.015625 C 2.21875 -0.671875 2.128906 -0.40625 1.953125 -0.21875 C 1.785156 -0.03125 1.539062 0.0625 1.21875 0.0625 C 0.882812 0.0625 0.632812 -0.03125 0.46875 -0.21875 C 0.300781 -0.40625 0.21875 -0.671875 0.21875 -1.015625 L 0.21875 -4.265625 Z M 0.890625 -4.265625 "/></g></g></g></g><g clip-path="url(#5182a6e0e9)"><g fill="#3b251a" fill-opacity="1"><g transform="translate(25.812372, 5.0873)"><g><path d="M 1.640625 0 C 1.640625 -0.03125 1.632812 -0.0546875 1.625 -0.078125 C 1.613281 -0.0976562 1.601562 -0.125 1.59375 -0.15625 C 1.59375 -0.195312 1.585938 -0.242188 1.578125 -0.296875 C 1.578125 -0.359375 1.578125 -0.4375 1.578125 -0.53125 L 1.578125 -1.1875 C 1.578125 -1.394531 1.539062 -1.535156 1.46875 -1.609375 C 1.40625 -1.691406 1.296875 -1.734375 1.140625 -1.734375 L 0.90625 -1.734375 L 0.90625 0 L 0.25 0 L 0.25 -4.265625 L 1.25 -4.265625 C 1.601562 -4.265625 1.859375 -4.179688 2.015625 -4.015625 C 2.171875 -3.859375 2.25 -3.613281 2.25 -3.28125 L 2.25 -2.953125 C 2.25 -2.515625 2.101562 -2.222656 1.8125 -2.078125 C 1.976562 -2.015625 2.09375 -1.90625 2.15625 -1.75 C 2.21875 -1.59375 2.25 -1.398438 2.25 -1.171875 L 2.25 -0.515625 C 2.25 -0.410156 2.253906 -0.316406 2.265625 -0.234375 C 2.273438 -0.160156 2.296875 -0.0820312 2.328125 0 Z M 0.90625 -3.65625 L 0.90625 -2.34375 L 1.171875 -2.34375 C 1.296875 -2.34375 1.394531 -2.375 1.46875 -2.4375 C 1.539062 -2.507812 1.578125 -2.628906 1.578125 -2.796875 L 1.578125 -3.21875 C 1.578125 -3.375 1.546875 -3.484375 1.484375 -3.546875 C 1.429688 -3.617188 1.347656 -3.65625 1.234375 -3.65625 Z M 0.90625 -3.65625 "/></g></g></g></g><g clip-path="url(#7fc0411dc6)"><g fill="#3b251a" fill-opacity="1"><g transform="translate(28.262439, 5.0873)"><g><path d="M 2.40625 0 L 1.734375 0 L 1.625 -0.78125 L 0.796875 -0.78125 L 0.6875 0 L 0.0625 0 L 0.75 -4.265625 L 1.734375 -4.265625 Z M 0.890625 -1.359375 L 1.53125 -1.359375 L 1.203125 -3.515625 Z M 0.890625 -1.359375 "/></g></g></g></g></g></g></svg>